<?xml version="1.0" encoding="UTF-8"?>
<svg width="175px" height="31px" viewBox="0 0 175 31" version="1.1" xmlns="http://www.w3.org/2000/svg" xmlns:xlink="http://www.w3.org/1999/xlink">
    <!-- Generator: Sketch 42 (36781) - http://www.bohemiancoding.com/sketch -->
    <title>Logo Copy 2</title>
    <desc>Created with Sketch.</desc>
    <defs>
        <polygon id="path-1" points="0.00522569484 0.0254531308 0.00522569484 19.1964879 17.5933468 19.1964879 17.5933468 0.0254531308 0.00522569484 0.0254531308"></polygon>
    </defs>
    <g id="Page-1" stroke="none" stroke-width="1" fill="none" fill-rule="evenodd">
        <g id="Landingspage" transform="translate(-634.000000, -53.000000)">
            <g id="Group-5" transform="translate(585.000000, 53.000000)">
                <g id="Logo-Copy-2" transform="translate(47.000000, 0.000000)">
                    <g id="Group">
                        <g id="Group-3" transform="translate(0.000000, 12.963157)">
                            <mask id="mask-2" fill="white">
                                <use xlink:href="#path-1"></use>
                            </mask>
                            <g id="Clip-2"></g>
                        </g>
                        <path d="M12.5924984,25.7305699 C14.308965,25.7305699 15.8823346,24.8657778 17.2411894,23.1360182 L20.3164238,26.5954497 C17.9563258,29.1179427 15.381713,30.3432038 12.5924984,30.3432038 C9.80337087,30.3432038 7.51477781,29.478324 5.58379647,27.6765056 C3.65281513,25.9468337 2.72307692,23.6405168 2.72307692,20.7576425 C2.72307692,17.9469147 3.65281513,15.5685391 5.6553014,13.8387794 C7.58628274,12.0370488 9.87487579,11.172169 12.5209935,11.172169 C13.8798483,11.172169 15.1671982,11.4604038 16.525966,12.0370488 C17.8848209,12.6136061 19.1006659,13.4063395 20.101909,14.4874832 L17.4557042,18.0189734 C16.8835777,17.298211 16.1684414,16.7216537 15.3102081,16.3612725 C14.4519748,16.000979 13.5937415,15.7847152 12.7355953,15.7847152 C11.3767405,15.7847152 10.2324004,16.2171551 9.23115728,17.0820349 C8.22991415,17.9469147 7.80079751,19.172088 7.80079751,20.7576425 C7.80079751,22.3432848 8.30141908,23.5684581 9.23115728,24.4333379 C10.1608955,25.2982177 11.3052356,25.7305699 12.5924984,25.7305699" id="Fill-1" fill="#FFFFFF"></path>
                        <path d="M25.4657364,20.7576425 C25.4657364,22.2711383 25.894853,23.4963994 26.7529992,24.5053966 C27.6112325,25.4423351 28.6839805,25.9468337 30.0428354,25.9468337 C31.4016902,25.9468337 32.4744383,25.4423351 33.3326716,24.5053966 C34.1909049,23.5684581 34.6199344,22.3432848 34.6199344,20.7576425 C34.6199344,19.2441467 34.1909049,18.0189734 33.3326716,17.0099762 C32.4744383,16.0730377 31.4016902,15.5685391 30.0428354,15.5685391 C28.6839805,15.5685391 27.6112325,16.0730377 26.7529992,17.0099762 C25.894853,18.0189734 25.4657364,19.2441467 25.4657364,20.7576425 L25.4657364,20.7576425 Z M39.769247,20.7576425 C39.769247,23.4243407 38.8395088,25.7305699 36.9800324,27.5323882 C35.1206431,29.4062653 32.83205,30.2711451 29.9713305,30.2711451 C27.1821158,30.2711451 24.8220179,29.3342066 22.9626285,27.5323882 C21.1031521,25.6585112 20.1734139,23.4243407 20.1734139,20.7576425 C20.1734139,18.0910321 21.1031521,15.7847152 22.9626285,13.9108381 C24.8220179,12.0370488 27.1106109,11.1001103 29.9713305,11.1001103 C32.7605451,11.1001103 35.1206431,12.0370488 36.9800324,13.9108381 C38.8395088,15.7847152 39.769247,18.0910321 39.769247,20.7576425 L39.769247,20.7576425 Z" id="Fill-4" fill="#FFFFFF"></path>
                        <path d="M45.7052009,20.8297012 C45.7052009,22.3432848 46.1343175,23.5684581 47.0640557,24.5053966 C47.922289,25.4423351 48.9950371,25.9468337 50.2108821,25.9468337 C51.42664,25.9468337 52.4278831,25.4423351 53.2146115,24.5053966 C54.0727577,23.5684581 54.4303694,22.3432848 54.4303694,20.8297012 C54.4303694,19.3162054 54.0012527,18.0910321 53.2146115,17.0820349 C52.3563782,16.0730377 51.355135,15.5685391 50.13929,15.5685391 C48.9235321,15.5685391 47.922289,16.0730377 46.9925508,17.0820349 C46.1343175,18.0910321 45.7052009,19.3162054 45.7052009,20.8297012 L45.7052009,20.8297012 Z M48.9235321,30.3432038 C46.706444,30.3432038 44.7754627,29.4062653 43.0590832,27.5323882 C41.3426166,25.6585112 40.4844704,23.352282 40.4844704,20.6135251 C40.4844704,17.8747683 41.3426166,15.5685391 42.9875783,13.8387794 C44.6324528,12.1091075 46.6349391,11.172169 48.8520272,11.172169 C51.0690283,11.172169 52.9285047,11.9649024 54.3588644,13.5505447 L54.3588644,4.46948199 L59.508177,0.001053233 L59.508177,30.12694 L54.3588644,30.12694 L54.3588644,27.6765056 C52.9285047,29.478324 51.1405332,30.3432038 48.9235321,30.3432038 L48.9235321,30.3432038 Z" id="Fill-5" fill="#FFFFFF"></path>
                        <path d="M73.3825711,16.3612725 C72.6674347,15.7847152 71.8092014,15.4964804 70.8079583,15.4964804 C69.8067152,15.4964804 68.876977,15.7847152 68.0187437,16.4333311 C67.1605104,17.0820349 66.6598888,17.8747683 66.516879,18.9559119 L74.5984161,18.9559119 C74.4553191,17.8027096 74.0262025,16.9379175 73.3825711,16.3612725 L73.3825711,16.3612725 Z M78.3172818,27.3882709 C76.2432906,29.3342066 73.8116877,30.3432038 71.0224731,30.3432038 C68.2333455,30.3432038 65.8732476,29.478324 64.0852761,27.7486521 C62.2257997,26.0188924 61.3675664,23.7125755 61.3675664,20.7576425 C61.3675664,17.8027096 62.2973046,15.4964804 64.156781,13.7667207 C66.0162574,12.0370488 68.2333455,11.172169 70.7364534,11.172169 C73.2395612,11.172169 75.4565622,11.9649024 77.1730288,13.4783982 C78.9610003,14.9919818 79.8191465,17.1540936 79.8191465,19.820704 L79.8191465,22.5594609 L66.3738691,22.5594609 C66.516879,23.5684581 67.0890055,24.4333379 67.9472387,25.0819539 C68.805472,25.7305699 69.8782201,26.0188924 70.9509681,26.0188924 C72.7389396,26.0188924 74.2408043,25.4423351 75.3850573,24.2170741 L78.3172818,27.3882709 L78.3172818,27.3882709 Z" id="Fill-6" fill="#FFFFFF"></path>
                        <path d="M81.8216328,29.478324 C81.2495063,28.9017667 80.9634866,28.1810042 80.9634866,27.3162122 C80.9634866,26.4513323 81.2495063,25.7305699 81.8216328,25.1540126 C82.3938463,24.5774553 83.1089827,24.2891328 83.967216,24.2891328 C84.8254492,24.2891328 85.5405856,24.5774553 86.1127121,25.1540126 C86.6848386,25.7305699 86.9709454,26.4513323 86.9709454,27.3162122 C86.9709454,28.1810042 86.6848386,28.9017667 86.1127121,29.478324 C85.5405856,30.0548813 84.8254492,30.3432038 83.967216,30.3432038 C83.1089827,30.3432038 82.3938463,30.0548813 81.8216328,29.478324" id="Fill-7" fill="#CD3D21"></path>
                        <path d="M98.9856017,16.0730377 C97.4840853,16.0730377 96.3396582,16.649595 95.5531911,17.7306509 C94.766724,18.8117068 94.4087639,20.2531439 94.4087639,22.0549623 L94.4087639,30.12694 L89.2595384,30.12694 L89.2595384,11.4604038 L94.4087639,11.4604038 L94.4087639,13.9108381 C95.0523953,13.1181047 95.9102802,12.5415475 96.9118718,11.9649024 C97.9134633,11.4604038 98.9141838,11.172169 99.9157753,11.1001103 L99.9157753,16.000979 L98.9856017,16.000979 L98.9856017,16.0730377" id="Fill-8" fill="#FFFFFF"></path>
                        <path d="M112.359897,16.3612725 C111.644847,15.7847152 110.786092,15.4964804 109.785371,15.4964804 C108.783779,15.4964804 107.854477,15.7847152 106.995721,16.4333311 C106.137836,17.0820349 105.63704,17.8747683 105.494205,18.9559119 L113.575742,18.9559119 C113.432906,17.8027096 113.003528,16.9379175 112.359897,16.3612725 L112.359897,16.3612725 Z M117.294694,27.3882709 C115.220094,29.3342066 112.788404,30.3432038 109.999624,30.3432038 C107.210845,30.3432038 104.850573,29.478324 103.062515,27.7486521 C101.203038,26.0188924 100.345153,23.7125755 100.345153,20.7576425 C100.345153,17.8027096 101.274456,15.4964804 103.133932,13.7667207 C104.993409,12.0370488 107.210845,11.172169 109.713953,11.172169 C112.217061,11.172169 114.433627,11.9649024 116.150267,13.4783982 C117.938326,14.9919818 118.796211,17.1540936 118.796211,19.820704 L118.796211,22.5594609 L105.351369,22.5594609 C105.494205,23.5684581 106.066418,24.4333379 106.924303,25.0819539 C107.782188,25.7305699 108.855197,26.0188924 109.928207,26.0188924 C111.716265,26.0188924 113.217782,25.4423351 114.362209,24.2170741 L117.294694,27.3882709 L117.294694,27.3882709 Z" id="Fill-9" fill="#FFFFFF"></path>
                        <path d="M125.590485,20.0369678 L125.590485,30.0548813 L120.441434,30.0548813 L120.441434,4.46948199 L125.590485,0.001053233 L125.590485,13.5505447 C127.16429,11.9649024 128.88006,11.172169 130.810954,11.172169 C132.741848,11.172169 134.387071,11.8928437 135.674334,13.2622221 C137.033015,14.6316006 137.676646,16.5054776 137.676646,18.8117068 L137.676646,30.12694 L132.527595,30.12694 L132.527595,19.8928505 C132.527595,17.0099762 131.454586,15.6405978 129.380856,15.6405978 C128.380135,15.6405978 127.449961,16.000979 126.663494,16.7937124 C125.948445,17.5144748 125.590485,18.5955307 125.590485,20.0369678" id="Fill-10" fill="#FFFFFF"></path>
                        <path d="M150.764399,22.9919008 L150.764399,22.127021 L147.546242,22.127021 C145.472512,22.127021 144.470921,22.7756369 144.470921,24.0729567 C144.470921,24.7215727 144.686045,25.2260713 145.18597,25.5864525 C145.686766,25.9468337 146.401815,26.0909511 147.260571,26.0909511 C148.189873,26.0909511 148.977211,25.8027163 149.692261,25.2260713 C150.40731,24.7215727 150.764399,23.9288393 150.764399,22.9919008 L150.764399,22.9919008 Z M155.914321,30.0548813 L151.050941,30.0548813 L151.050941,27.8207108 C149.692261,29.478324 148.118456,30.3432038 146.116143,30.3432038 C144.113831,30.3432038 142.540026,29.7666465 141.181346,28.6134441 C139.822665,27.4603295 139.179034,25.9468337 139.179034,24.0729567 C139.179034,22.1990796 139.894083,20.7576425 141.252763,19.820704 C142.611444,18.8837655 144.470921,18.3792669 146.902611,18.3792669 L150.764399,18.3792669 L150.764399,18.3072082 C150.764399,16.3612725 149.692261,15.3522752 147.61766,15.3522752 C146.759775,15.3522752 145.758183,15.4964804 144.757463,15.8567738 C143.755871,16.2171551 142.897986,16.649595 142.254355,17.1540936 L139.965501,13.8387794 C142.397191,12.0370488 145.18597,11.172169 148.261291,11.172169 C150.478728,11.172169 152.338204,11.7487263 153.768303,12.8297822 C155.199272,13.9828968 155.914321,15.7126565 155.914321,18.1630908 L155.914321,30.0548813 L155.914321,30.0548813 Z" id="Fill-11" fill="#FFFFFF"></path>
                        <path d="M162.994267,20.8297012 C162.994267,22.3432848 163.423645,23.5684581 164.210112,24.5053966 C165.067997,25.4423351 166.069588,25.9468337 167.214015,25.9468337 C168.42986,25.9468337 169.430581,25.4423351 170.360755,24.5053966 C171.21864,23.5684581 171.719435,22.3432848 171.719435,20.8297012 C171.719435,19.3162054 171.290057,18.0910321 170.432173,17.0820349 C169.574288,16.0730377 168.501278,15.5685391 167.285433,15.5685391 C166.069588,15.5685391 165.067997,16.0730377 164.210112,17.0820349 C163.423645,18.0189734 162.994267,19.3162054 162.994267,20.8297012 L162.994267,20.8297012 Z M168.572696,11.172169 C170.790133,11.172169 172.792445,12.0370488 174.436797,13.8387794 C176.08202,15.5685391 176.939905,17.8747683 176.939905,20.6135251 C176.939905,23.352282 176.08202,25.6585112 174.365379,27.5323882 C172.649609,29.4062653 170.717844,30.3432038 168.501278,30.3432038 C166.283842,30.3432038 164.495783,29.4062653 163.065685,27.6044469 L163.065685,30.0548813 L157.916633,30.0548813 L157.916633,4.46948199 L163.065685,0.001053233 L163.065685,13.5505447 C164.495783,11.9649024 166.283842,11.172169 168.572696,11.172169 L168.572696,11.172169 Z" id="Fill-12" fill="#FFFFFF"></path>
                    </g>
                </g>
            </g>
        </g>
    </g>
</svg>